<svg xmlns="http://www.w3.org/2000/svg" version="1.1" xmlns:xlink="http://www.w3.org/1999/xlink" width="1000" height="1000"><g clip-path="url(#SvgjsClipPath1545)"><rect width="1000" height="1000" fill="#ffffff"></rect><g transform="matrix(10,0,0,10,0,0)"><svg xmlns="http://www.w3.org/2000/svg" version="1.1" viewBox="0 0 100 100" id="svg3" sodipodi:docname="favicon.svg" inkscape:version="1.4.3 (0d15f75, 2025-12-25)" xmlns:inkscape="http://www.inkscape.org/namespaces/inkscape" xmlns:sodipodi="http://sodipodi.sourceforge.net/DTD/sodipodi-0.dtd" xmlns:svg="http://www.w3.org/2000/svg" width="100" height="100"><defs id="defs3"><clipPath id="SvgjsClipPath1545"><rect width="1000" height="1000" x="0" y="0" rx="300" ry="300"></rect></clipPath></defs><sodipodi:namedview id="namedview3" pagecolor="#ffffff" bordercolor="#666666" borderopacity="1.0" inkscape:showpageshadow="2" inkscape:pageopacity="0.0" inkscape:pagecheckerboard="0" inkscape:deskcolor="#d1d1d1" inkscape:zoom="8" inkscape:cx="75.0625" inkscape:cy="47.0625" inkscape:window-width="1920" inkscape:window-height="1017" inkscape:window-x="-8" inkscape:window-y="-8" inkscape:window-maximized="1" inkscape:current-layer="svg3"></sodipodi:namedview><rect x="8.587904" y="13.900787" width="81.916229" height="72.775116" rx="24.755949" fill="none" stroke="#000000" stroke-width="7.17581" id="rect1"></rect><path d="m 32.333797,33.910014 c 6.932851,-2.407905 8.733932,-2.809557 13.939132,-3.099183 2.21543,-0.123276 10.15468,0.640889 14.296083,2.534671 3.374297,1.542998 7.487322,3.822184 12.324933,7.519482" fill="none" stroke="#000000" stroke-width="10.4723" stroke-linecap="round" id="path1" sodipodi:nodetypes="cssc"></path><path d="m 39.694558,42.146921 c -0.950055,4.307252 -0.869312,4.771312 -1.073756,6.31783 -0.167746,1.26895 -0.527499,3.266672 -1.806226,8.714192" fill="none" stroke="#000000" stroke-width="12.1813" stroke-linecap="round" id="path2" sodipodi:nodetypes="csc"></path><path d="M 62.640504,45.633658 60.136202,59.82691" fill="none" stroke="#000000" stroke-width="11.7698" stroke-linecap="round" id="path3" sodipodi:nodetypes="cc"></path></svg></g></g></svg>